<?xml version="1.0" encoding="UTF-8"?> <svg xmlns="http://www.w3.org/2000/svg" xmlns:xlink="http://www.w3.org/1999/xlink" width="75" height="22" viewBox="0 0 75 22"><defs><path id="h6boyrh5ca" d="M0.017 0.045L1.386 0.045 1.386 1.405 0.017 1.405z"></path></defs><g fill="none" fill-rule="evenodd"><path fill="#FFF" fill-rule="nonzero" d="M16.639 9.198c0 3.638-2.991 6.587-6.681 6.587s-6.68-2.95-6.68-6.587c0-3.638 2.99-6.588 6.68-6.588 3.69 0 6.68 2.95 6.68 6.588"></path><path fill="#00AEF0" fill-rule="nonzero" d="M18.043 13.626V7.91C18.043 3.54 14.379 0 9.859 0S1.675 3.54 1.675 7.909v5.8c-.035.747-.219 2.462-1.117 4.468-1.208 2.696-.209 2.375.687 2.153.895-.221 2.894-1.087 3.519-.02.624 1.066 1.145 1.992 2.603 1.388 1.457-.603 2.144-.804 2.352-.804h.283c.208 0 .895.2 2.353.804 1.457.604 1.978-.322 2.603-1.388.624-1.067 2.623-.201 3.518.02.896.222 1.895.543.687-2.153-.934-2.087-1.095-3.856-1.12-4.55zM7.333 4.312c.881 0 1.596 1.093 1.596 2.441 0 1.349-.715 2.442-1.596 2.442-.881 0-1.596-1.093-1.596-2.442 0-1.348.715-2.44 1.596-2.44m2.526 9.756c-1.942 0-3.578-1.847-4.07-3.903.951 1.265 2.42 2.077 4.07 2.077 1.65 0 3.119-.812 4.07-2.077-.493 2.056-2.128 3.903-4.07 3.903m2.526-4.874c-.882 0-1.596-1.093-1.596-2.442 0-1.348.714-2.44 1.596-2.44.882 0 1.596 1.092 1.596 2.44 0 1.349-.714 2.442-1.596 2.442"></path><path fill="#1D1D1B" fill-rule="nonzero" d="M24.367 9.291h2.6v3.623c0 1.827-.945 2.872-2.77 2.872-1.823 0-2.768-1.045-2.768-2.872v-5.94c0-1.828.945-2.872 2.769-2.872 1.824 0 2.77 1.044 2.77 2.872v1.11H25.21V6.858c0-.815-.371-1.125-.962-1.125s-.963.31-.963 1.125v6.17c0 .815.372 1.109.963 1.109s.962-.294.962-1.11v-2.105h-.844V9.291zM30.093 15.649L28.235 15.649 28.235 4.226 30.093 4.226 30.093 9.121 32.203 9.121 32.203 4.226 34.094 4.226 34.094 15.649 32.203 15.649 32.203 10.753 30.093 10.753zM35.294 6.974c0-1.828.997-2.872 2.82-2.872 1.824 0 2.82 1.044 2.82 2.872v5.94c0 1.828-.996 2.872-2.82 2.872-1.823 0-2.82-1.044-2.82-2.872v-5.94zm1.858 6.054c0 .816.372 1.126.962 1.126.591 0 .963-.31.963-1.126V6.86c0-.816-.372-1.127-.963-1.127-.59 0-.962.31-.962 1.127v6.168zM44.635 4.102c1.807 0 2.736 1.044 2.736 2.872v.359h-1.756V6.86c0-.816-.338-1.126-.93-1.126-.59 0-.929.31-.929 1.126 0 2.35 3.632 2.79 3.632 6.054 0 1.828-.946 2.872-2.77 2.872-1.823 0-2.77-1.044-2.77-2.872v-.702h1.757v.816c0 .816.372 1.11.963 1.11.59 0 .962-.294.962-1.11 0-2.35-3.63-2.79-3.63-6.054 0-1.828.928-2.872 2.735-2.872M47.773 4.226L53.514 4.226 53.514 5.858 51.573 5.858 51.573 15.649 49.715 15.649 49.715 5.858 47.773 5.858zM56.311 9.04L58.861 9.04 58.861 10.672 56.311 10.672 56.311 14.017 59.519 14.017 59.519 15.649 54.454 15.649 54.454 4.226 59.519 4.226 59.519 5.858 56.311 5.858zM64.514 15.649c-.1-.294-.169-.474-.169-1.403V12.45c0-1.061-.371-1.453-1.216-1.453h-.641v4.65H60.63V4.227h2.804c1.924 0 2.753.865 2.753 2.627v.898c0 1.174-.39 1.942-1.217 2.317.929.375 1.233 1.24 1.233 2.431v1.763c0 .555.017.963.202 1.387h-1.891zm-2.026-9.791v3.508h.726c.693 0 1.114-.293 1.114-1.207V7.033c0-.817-.287-1.175-.945-1.175h-.895zM69.028 11.863L66.681 4.226 68.622 4.226 70.042 9.432 71.46 4.226 73.233 4.226 70.886 11.863 70.886 15.649 69.028 15.649z"></path><g transform="translate(73.613 4.226)"><mask id="8qb6aodldb" fill="#fff"><use xlink:href="#h6boyrh5ca"></use></mask><path fill="#1D1D1B" fill-rule="nonzero" d="M.702.045c.389 0 .684.285.684.68 0 .395-.295.68-.684.68-.39 0-.685-.285-.685-.68 0-.395.296-.68.685-.68zm0 1.227c.31 0 .542-.23.542-.547 0-.317-.232-.548-.542-.548-.31 0-.543.23-.543.548 0 .317.232.547.543.547zM.8 1.13c-.01-.024-.014-.038-.014-.114V.93c0-.087-.031-.118-.1-.118h-.05v.319h-.15V.318h.227c.154 0 .223.07.223.213v.017c0 .097-.032.158-.103.188.077.03.103.099.103.196v.087c0 .044.001.078.017.112H.8zM.635.45V.68h.06c.056 0 .09-.023.09-.097V.548C.786.482.763.452.706.452h-.07z" mask="url(#8qb6aodldb)"></path></g></g></svg> 